<svg xmlns="http://www.w3.org/2000/svg" width="320" height="256" viewBox="0 0 320 256" fill="none">
<defs>
  <linearGradient id="tealGlow" x1="0" y1="0" x2="1" y2="1">
    <stop stop-color="#79F6E7"/><stop offset=".55" stop-color="#15BDB8"/><stop offset="1" stop-color="#1688D8"/>
  </linearGradient>
  <linearGradient id="goldMetal" x1="0" y1="0" x2="1" y2="1">
    <stop stop-color="#FFF4C8"/><stop offset=".35" stop-color="#D9A62E"/><stop offset=".72" stop-color="#8B5B17"/><stop offset="1" stop-color="#FFE28A"/>
  </linearGradient>
  <filter id="softGlow" x="-40%" y="-40%" width="180%" height="180%">
    <feGaussianBlur stdDeviation="3" result="blur"/><feMerge><feMergeNode in="blur"/><feMergeNode in="SourceGraphic"/></feMerge>
  </filter>
  <filter id="paperNoise" x="0" y="0" width="100%" height="100%">
    <feTurbulence type="fractalNoise" baseFrequency=".85" numOctaves="3" seed="8" result="noise"/>
    <feColorMatrix in="noise" type="saturate" values="0"/>
    <feComponentTransfer><feFuncA type="table" tableValues="0 .08"/></feComponentTransfer>
  </filter>
</defs>

  <defs>
  <linearGradient id="tealGlow" x1="0" y1="0" x2="1" y2="1">
    <stop stop-color="#79F6E7"/><stop offset=".55" stop-color="#15BDB8"/><stop offset="1" stop-color="#1688D8"/>
  </linearGradient>
  <linearGradient id="goldMetal" x1="0" y1="0" x2="1" y2="1">
    <stop stop-color="#FFF4C8"/><stop offset=".35" stop-color="#D9A62E"/><stop offset=".72" stop-color="#8B5B17"/><stop offset="1" stop-color="#FFE28A"/>
  </linearGradient>
  <filter id="softGlow" x="-40%" y="-40%" width="180%" height="180%">
    <feGaussianBlur stdDeviation="3" result="blur"/><feMerge><feMergeNode in="blur"/><feMergeNode in="SourceGraphic"/></feMerge>
  </filter>
  <filter id="paperNoise" x="0" y="0" width="100%" height="100%">
    <feTurbulence type="fractalNoise" baseFrequency=".85" numOctaves="3" seed="8" result="noise"/>
    <feColorMatrix in="noise" type="saturate" values="0"/>
    <feComponentTransfer><feFuncA type="table" tableValues="0 .08"/></feComponentTransfer>
  </filter>
</defs>
  <g filter="url(#softGlow)">
  <path d="M20 76V28c0-4 4-8 8-8h48" stroke="#79F6E7" stroke-width="6" stroke-linecap="round"/>
  <path d="M236 20h48c4 0 8 4 8 8v48" stroke="#79F6E7" stroke-width="6" stroke-linecap="round"/>
  <path d="M292 180v48c0 4-4 8-8 8h-48" stroke="#79F6E7" stroke-width="6" stroke-linecap="round"/>
  <path d="M76 236H28c-4 0-8-4-8-8v-48" stroke="#79F6E7" stroke-width="6" stroke-linecap="round"/></g>
  <path d="M160 52v32M160 172v32M82 128h32M206 128h32" stroke="#DDF6FF" stroke-width="3" stroke-linecap="round" opacity=".76"/>
  <circle cx="160" cy="128" r="54" stroke="#79F6E7" stroke-width="2" stroke-dasharray="8 10" opacity=".72"/>

</svg>
