<svg xmlns="http://www.w3.org/2000/svg" width="900" height="520" viewBox="0 0 900 520" fill="none">
<defs>
  <linearGradient id="tealGlow" x1="0" y1="0" x2="1" y2="1">
    <stop stop-color="#79F6E7"/><stop offset=".55" stop-color="#15BDB8"/><stop offset="1" stop-color="#1688D8"/>
  </linearGradient>
  <linearGradient id="goldMetal" x1="0" y1="0" x2="1" y2="1">
    <stop stop-color="#FFF4C8"/><stop offset=".35" stop-color="#D9A62E"/><stop offset=".72" stop-color="#8B5B17"/><stop offset="1" stop-color="#FFE28A"/>
  </linearGradient>
  <filter id="softGlow" x="-40%" y="-40%" width="180%" height="180%">
    <feGaussianBlur stdDeviation="3" result="blur"/><feMerge><feMergeNode in="blur"/><feMergeNode in="SourceGraphic"/></feMerge>
  </filter>
  <filter id="paperNoise" x="0" y="0" width="100%" height="100%">
    <feTurbulence type="fractalNoise" baseFrequency=".85" numOctaves="3" seed="8" result="noise"/>
    <feColorMatrix in="noise" type="saturate" values="0"/>
    <feComponentTransfer><feFuncA type="table" tableValues="0 .08"/></feComponentTransfer>
  </filter>
</defs>

  <defs>
  <linearGradient id="tealGlow" x1="0" y1="0" x2="1" y2="1">
    <stop stop-color="#79F6E7"/><stop offset=".55" stop-color="#15BDB8"/><stop offset="1" stop-color="#1688D8"/>
  </linearGradient>
  <linearGradient id="goldMetal" x1="0" y1="0" x2="1" y2="1">
    <stop stop-color="#FFF4C8"/><stop offset=".35" stop-color="#D9A62E"/><stop offset=".72" stop-color="#8B5B17"/><stop offset="1" stop-color="#FFE28A"/>
  </linearGradient>
  <filter id="softGlow" x="-40%" y="-40%" width="180%" height="180%">
    <feGaussianBlur stdDeviation="3" result="blur"/><feMerge><feMergeNode in="blur"/><feMergeNode in="SourceGraphic"/></feMerge>
  </filter>
  <filter id="paperNoise" x="0" y="0" width="100%" height="100%">
    <feTurbulence type="fractalNoise" baseFrequency=".85" numOctaves="3" seed="8" result="noise"/>
    <feColorMatrix in="noise" type="saturate" values="0"/>
    <feComponentTransfer><feFuncA type="table" tableValues="0 .08"/></feComponentTransfer>
  </filter>
</defs>
  <rect width="900" height="520" fill="#F8FBF6"/>
  <rect width="900" height="520" fill="url(#paperNoise)" opacity=".7"/>
  <g stroke="#BFDCEB" stroke-width="1" opacity=".7">
    <path d="M0 0v520"/><path d="M50 0v520"/><path d="M100 0v520"/><path d="M150 0v520"/><path d="M200 0v520"/><path d="M250 0v520"/><path d="M300 0v520"/><path d="M350 0v520"/><path d="M400 0v520"/><path d="M450 0v520"/><path d="M500 0v520"/><path d="M550 0v520"/><path d="M600 0v520"/><path d="M650 0v520"/><path d="M700 0v520"/><path d="M750 0v520"/><path d="M800 0v520"/><path d="M850 0v520"/><path d="M900 0v520"/>
    <path d="M0 0h900"/><path d="M0 48h900"/><path d="M0 96h900"/><path d="M0 144h900"/><path d="M0 192h900"/><path d="M0 240h900"/><path d="M0 288h900"/><path d="M0 336h900"/><path d="M0 384h900"/><path d="M0 432h900"/><path d="M0 480h900"/><path d="M0 528h900"/>
  </g>
  <g stroke="#8EBFD7" stroke-width="5" stroke-linecap="round" stroke-linejoin="round" opacity=".32">
    <path d="M-20 132c98-18 156 12 236-12 80-23 116-92 214-78 62 9 86 48 138 55 62 9 104-28 164-18 52 8 86 43 166 18"/>
    <path d="M52 434c92-42 140-18 204-62 58-40 62-104 136-126 78-23 132 35 198 2 56-28 70-93 146-96 58-2 106 30 164 8"/>
    <path d="M104 0c12 98-34 152-10 230 26 82 98 96 112 164 8 38-6 76-32 126"/>
    <path d="M724 0c-18 80 5 122-22 190-34 86-118 104-130 178-7 42 13 91 54 152"/>
  </g>
  <g fill="#0FA6A1" opacity=".55">
    <circle cx="154" cy="158" r="7"/><circle cx="386" cy="247" r="6"/><circle cx="654" cy="132" r="7"/><circle cx="736" cy="402" r="6"/>
  </g>
  <g stroke="#D9A62E" stroke-width="2" opacity=".5"><path d="M122 318h72l28 28h86"/><path d="M596 286h84l28-28h62"/></g>

</svg>
