<svg xmlns="http://www.w3.org/2000/svg" width="520" height="720" viewBox="0 0 520 720" fill="none">
<defs>
  <linearGradient id="tealGlow" x1="0" y1="0" x2="1" y2="1">
    <stop stop-color="#79F6E7"/><stop offset=".55" stop-color="#15BDB8"/><stop offset="1" stop-color="#1688D8"/>
  </linearGradient>
  <linearGradient id="goldMetal" x1="0" y1="0" x2="1" y2="1">
    <stop stop-color="#FFF4C8"/><stop offset=".35" stop-color="#D9A62E"/><stop offset=".72" stop-color="#8B5B17"/><stop offset="1" stop-color="#FFE28A"/>
  </linearGradient>
  <filter id="softGlow" x="-40%" y="-40%" width="180%" height="180%">
    <feGaussianBlur stdDeviation="3" result="blur"/><feMerge><feMergeNode in="blur"/><feMergeNode in="SourceGraphic"/></feMerge>
  </filter>
  <filter id="paperNoise" x="0" y="0" width="100%" height="100%">
    <feTurbulence type="fractalNoise" baseFrequency=".85" numOctaves="3" seed="8" result="noise"/>
    <feColorMatrix in="noise" type="saturate" values="0"/>
    <feComponentTransfer><feFuncA type="table" tableValues="0 .08"/></feComponentTransfer>
  </filter>
</defs>

  <defs>
  <linearGradient id="tealGlow" x1="0" y1="0" x2="1" y2="1">
    <stop stop-color="#79F6E7"/><stop offset=".55" stop-color="#15BDB8"/><stop offset="1" stop-color="#1688D8"/>
  </linearGradient>
  <linearGradient id="goldMetal" x1="0" y1="0" x2="1" y2="1">
    <stop stop-color="#FFF4C8"/><stop offset=".35" stop-color="#D9A62E"/><stop offset=".72" stop-color="#8B5B17"/><stop offset="1" stop-color="#FFE28A"/>
  </linearGradient>
  <filter id="softGlow" x="-40%" y="-40%" width="180%" height="180%">
    <feGaussianBlur stdDeviation="3" result="blur"/><feMerge><feMergeNode in="blur"/><feMergeNode in="SourceGraphic"/></feMerge>
  </filter>
  <filter id="paperNoise" x="0" y="0" width="100%" height="100%">
    <feTurbulence type="fractalNoise" baseFrequency=".85" numOctaves="3" seed="8" result="noise"/>
    <feColorMatrix in="noise" type="saturate" values="0"/>
    <feComponentTransfer><feFuncA type="table" tableValues="0 .08"/></feComponentTransfer>
  </filter>
</defs>
  <rect width="520" height="720" rx="28" fill="#071B31"/>
  <rect width="520" height="720" fill="url(#paperNoise)" opacity=".3"/>
  <g stroke="#62C7F2" stroke-opacity=".13" stroke-width="1">
    <path d="M0 0v720"/><path d="M42 0v720"/><path d="M84 0v720"/><path d="M126 0v720"/><path d="M168 0v720"/><path d="M210 0v720"/><path d="M252 0v720"/><path d="M294 0v720"/><path d="M336 0v720"/><path d="M378 0v720"/><path d="M420 0v720"/><path d="M462 0v720"/><path d="M504 0v720"/><path d="M546 0v720"/>
    <path d="M0 0h520"/><path d="M0 42h520"/><path d="M0 84h520"/><path d="M0 126h520"/><path d="M0 168h520"/><path d="M0 210h520"/><path d="M0 252h520"/><path d="M0 294h520"/><path d="M0 336h520"/><path d="M0 378h520"/><path d="M0 420h520"/><path d="M0 462h520"/><path d="M0 504h520"/><path d="M0 546h520"/><path d="M0 588h520"/><path d="M0 630h520"/><path d="M0 672h520"/><path d="M0 714h520"/><path d="M0 756h520"/>
  </g>
  <g opacity=".18" stroke="#79F6E7" stroke-width="4" stroke-linecap="round"><path d="M126 222c0-70 48-116 132-116s132 46 132 116"/><rect x="104" y="222" width="312" height="210" rx="30"/></g>
  <path d="M260 485c-30 0-54 19-54 47h44c0-7 5-12 13-12 10 0 16 6 16 15 0 20-38 20-38 62h42c0-26 42-30 42-68 0-26-25-44-65-44z" fill="#DDF6FF" opacity=".2"/>
  <circle cx="262" cy="642" r="22" fill="#DDF6FF" opacity=".2"/>

</svg>
