<svg xmlns="http://www.w3.org/2000/svg" width="480" height="92" viewBox="0 0 480 92" fill="none">
<defs>
  <linearGradient id="tealGlow" x1="0" y1="0" x2="1" y2="1">
    <stop stop-color="#79F6E7"/><stop offset=".55" stop-color="#15BDB8"/><stop offset="1" stop-color="#1688D8"/>
  </linearGradient>
  <linearGradient id="goldMetal" x1="0" y1="0" x2="1" y2="1">
    <stop stop-color="#FFF4C8"/><stop offset=".35" stop-color="#D9A62E"/><stop offset=".72" stop-color="#8B5B17"/><stop offset="1" stop-color="#FFE28A"/>
  </linearGradient>
  <filter id="softGlow" x="-40%" y="-40%" width="180%" height="180%">
    <feGaussianBlur stdDeviation="3" result="blur"/><feMerge><feMergeNode in="blur"/><feMergeNode in="SourceGraphic"/></feMerge>
  </filter>
  <filter id="paperNoise" x="0" y="0" width="100%" height="100%">
    <feTurbulence type="fractalNoise" baseFrequency=".85" numOctaves="3" seed="8" result="noise"/>
    <feColorMatrix in="noise" type="saturate" values="0"/>
    <feComponentTransfer><feFuncA type="table" tableValues="0 .08"/></feComponentTransfer>
  </filter>
</defs>

  <defs>
  <linearGradient id="tealGlow" x1="0" y1="0" x2="1" y2="1">
    <stop stop-color="#79F6E7"/><stop offset=".55" stop-color="#15BDB8"/><stop offset="1" stop-color="#1688D8"/>
  </linearGradient>
  <linearGradient id="goldMetal" x1="0" y1="0" x2="1" y2="1">
    <stop stop-color="#FFF4C8"/><stop offset=".35" stop-color="#D9A62E"/><stop offset=".72" stop-color="#8B5B17"/><stop offset="1" stop-color="#FFE28A"/>
  </linearGradient>
  <filter id="softGlow" x="-40%" y="-40%" width="180%" height="180%">
    <feGaussianBlur stdDeviation="3" result="blur"/><feMerge><feMergeNode in="blur"/><feMergeNode in="SourceGraphic"/></feMerge>
  </filter>
  <filter id="paperNoise" x="0" y="0" width="100%" height="100%">
    <feTurbulence type="fractalNoise" baseFrequency=".85" numOctaves="3" seed="8" result="noise"/>
    <feColorMatrix in="noise" type="saturate" values="0"/>
    <feComponentTransfer><feFuncA type="table" tableValues="0 .08"/></feComponentTransfer>
  </filter>
</defs>
  <path d="M16 46c86-32 134 34 220 0s134 32 228 0" stroke="#C8D8E6" stroke-width="10" stroke-linecap="round" stroke-dasharray="1 22"/>
  <path d="M16 46c86-32 134 34 220 0s134 32 228 0" stroke="url(#tealGlow)" stroke-width="5" stroke-linecap="round" stroke-dasharray="42 18" opacity=".88"/>
  <circle cx="16" cy="46" r="8" fill="#0FA6A1"/><circle cx="464" cy="46" r="8" fill="#D9A62E"/>

</svg>
