<svg xmlns="http://www.w3.org/2000/svg" viewBox="0 0 420 220">
  <rect width="420" height="220" fill="#05243a"/>
  <g stroke="#9ff6ee" stroke-opacity=".08" stroke-width="1" fill="none">
    <path d="M0 38h420M0 82h420M0 126h420M0 170h420"/>
    <path d="M48 0v220M104 0v220M178 0v220M246 0v220M324 0v220M386 0v220"/>
    <path d="M20 184c70-54 110-72 180-46 64 24 120-4 198-62"/>
    <path d="M-20 74c84 36 142 12 204-18 84-42 144 4 250-10"/>
  </g>
  <path d="M50 138 C116 98 154 178 214 120 S308 92 372 52" stroke="#9ff6ee" stroke-width="4" stroke-dasharray="8 8" fill="none" opacity=".85"/>
  <path d="M50 138 C116 98 154 178 214 120 S308 92 372 52" stroke="#0da6d6" stroke-width="12" fill="none" opacity=".08"/>
</svg>
