<svg xmlns="http://www.w3.org/2000/svg" width="180" height="180" viewBox="0 0 180 180" fill="none">
<defs>
  <linearGradient id="tealGlow" x1="0" y1="0" x2="1" y2="1">
    <stop stop-color="#79F6E7"/><stop offset=".55" stop-color="#15BDB8"/><stop offset="1" stop-color="#1688D8"/>
  </linearGradient>
  <linearGradient id="goldMetal" x1="0" y1="0" x2="1" y2="1">
    <stop stop-color="#FFF4C8"/><stop offset=".35" stop-color="#D9A62E"/><stop offset=".72" stop-color="#8B5B17"/><stop offset="1" stop-color="#FFE28A"/>
  </linearGradient>
  <filter id="softGlow" x="-40%" y="-40%" width="180%" height="180%">
    <feGaussianBlur stdDeviation="3" result="blur"/><feMerge><feMergeNode in="blur"/><feMergeNode in="SourceGraphic"/></feMerge>
  </filter>
  <filter id="paperNoise" x="0" y="0" width="100%" height="100%">
    <feTurbulence type="fractalNoise" baseFrequency=".85" numOctaves="3" seed="8" result="noise"/>
    <feColorMatrix in="noise" type="saturate" values="0"/>
    <feComponentTransfer><feFuncA type="table" tableValues="0 .08"/></feComponentTransfer>
  </filter>
</defs>

  <defs>
  <linearGradient id="tealGlow" x1="0" y1="0" x2="1" y2="1">
    <stop stop-color="#79F6E7"/><stop offset=".55" stop-color="#15BDB8"/><stop offset="1" stop-color="#1688D8"/>
  </linearGradient>
  <linearGradient id="goldMetal" x1="0" y1="0" x2="1" y2="1">
    <stop stop-color="#FFF4C8"/><stop offset=".35" stop-color="#D9A62E"/><stop offset=".72" stop-color="#8B5B17"/><stop offset="1" stop-color="#FFE28A"/>
  </linearGradient>
  <filter id="softGlow" x="-40%" y="-40%" width="180%" height="180%">
    <feGaussianBlur stdDeviation="3" result="blur"/><feMerge><feMergeNode in="blur"/><feMergeNode in="SourceGraphic"/></feMerge>
  </filter>
  <filter id="paperNoise" x="0" y="0" width="100%" height="100%">
    <feTurbulence type="fractalNoise" baseFrequency=".85" numOctaves="3" seed="8" result="noise"/>
    <feColorMatrix in="noise" type="saturate" values="0"/>
    <feComponentTransfer><feFuncA type="table" tableValues="0 .08"/></feComponentTransfer>
  </filter>
</defs>
  <path d="M90 8l18 28 34 8-22 27 3 35-33-13-33 13 3-35-22-27 34-8L90 8z" fill="#10B7B1" stroke="#075C5A" stroke-width="4"/>
  <path d="M120 54c-17-12-56-11-60 12-6 34 64 20 60 56-3 26-49 28-72 12" stroke="#DDF6FF" stroke-width="13" stroke-linecap="round"/>

</svg>
