<svg xmlns="http://www.w3.org/2000/svg" width="220" height="220" viewBox="0 0 220 220" fill="none">
<defs>
  <linearGradient id="tealGlow" x1="0" y1="0" x2="1" y2="1">
    <stop stop-color="#79F6E7"/><stop offset=".55" stop-color="#15BDB8"/><stop offset="1" stop-color="#1688D8"/>
  </linearGradient>
  <linearGradient id="goldMetal" x1="0" y1="0" x2="1" y2="1">
    <stop stop-color="#FFF4C8"/><stop offset=".35" stop-color="#D9A62E"/><stop offset=".72" stop-color="#8B5B17"/><stop offset="1" stop-color="#FFE28A"/>
  </linearGradient>
  <filter id="softGlow" x="-40%" y="-40%" width="180%" height="180%">
    <feGaussianBlur stdDeviation="3" result="blur"/><feMerge><feMergeNode in="blur"/><feMergeNode in="SourceGraphic"/></feMerge>
  </filter>
  <filter id="paperNoise" x="0" y="0" width="100%" height="100%">
    <feTurbulence type="fractalNoise" baseFrequency=".85" numOctaves="3" seed="8" result="noise"/>
    <feColorMatrix in="noise" type="saturate" values="0"/>
    <feComponentTransfer><feFuncA type="table" tableValues="0 .08"/></feComponentTransfer>
  </filter>
</defs>

  <defs>
  <linearGradient id="tealGlow" x1="0" y1="0" x2="1" y2="1">
    <stop stop-color="#79F6E7"/><stop offset=".55" stop-color="#15BDB8"/><stop offset="1" stop-color="#1688D8"/>
  </linearGradient>
  <linearGradient id="goldMetal" x1="0" y1="0" x2="1" y2="1">
    <stop stop-color="#FFF4C8"/><stop offset=".35" stop-color="#D9A62E"/><stop offset=".72" stop-color="#8B5B17"/><stop offset="1" stop-color="#FFE28A"/>
  </linearGradient>
  <filter id="softGlow" x="-40%" y="-40%" width="180%" height="180%">
    <feGaussianBlur stdDeviation="3" result="blur"/><feMerge><feMergeNode in="blur"/><feMergeNode in="SourceGraphic"/></feMerge>
  </filter>
  <filter id="paperNoise" x="0" y="0" width="100%" height="100%">
    <feTurbulence type="fractalNoise" baseFrequency=".85" numOctaves="3" seed="8" result="noise"/>
    <feColorMatrix in="noise" type="saturate" values="0"/>
    <feComponentTransfer><feFuncA type="table" tableValues="0 .08"/></feComponentTransfer>
  </filter>
</defs>
  <path d="M110 10l23 18 29-2 13 26 26 13-2 29 18 23-18 23 2 29-26 13-13 26-29-2-23 18-23-18-29 2-13-26-26-13 2-29-18-23 18-23-2-29 26-13 13-26 29 2 23-18z" fill="url(#goldMetal)" stroke="#6D4512" stroke-width="4"/>
  <circle cx="110" cy="110" r="76" fill="#102A43" stroke="#FFF2BC" stroke-width="6"/>
  <circle cx="110" cy="110" r="61" fill="#F9FCFF" opacity=".12" stroke="#0F2742" stroke-opacity=".24" stroke-width="2"/>
  <path d="M64 146h92V76l-46-24-46 24v70z" fill="#FFF2BC"/><path d="M84 146v-32h18v32M118 146v-50h18v50M78 86h64" stroke="#102A43" stroke-width="7" stroke-linecap="round"/><path d="M54 166h112" stroke="#FFF2BC" stroke-width="8" stroke-linecap="round"/>
  <path d="M54 156c28 24 84 24 112 0" stroke="#FFF2BC" stroke-width="6" stroke-linecap="round" opacity=".72"/>

</svg>
