<svg xmlns="http://www.w3.org/2000/svg" width="720" height="420" viewBox="0 0 720 420" fill="none">
<defs>
  <linearGradient id="tealGlow" x1="0" y1="0" x2="1" y2="1">
    <stop stop-color="#79F6E7"/><stop offset=".55" stop-color="#15BDB8"/><stop offset="1" stop-color="#1688D8"/>
  </linearGradient>
  <linearGradient id="goldMetal" x1="0" y1="0" x2="1" y2="1">
    <stop stop-color="#FFF4C8"/><stop offset=".35" stop-color="#D9A62E"/><stop offset=".72" stop-color="#8B5B17"/><stop offset="1" stop-color="#FFE28A"/>
  </linearGradient>
  <filter id="softGlow" x="-40%" y="-40%" width="180%" height="180%">
    <feGaussianBlur stdDeviation="3" result="blur"/><feMerge><feMergeNode in="blur"/><feMergeNode in="SourceGraphic"/></feMerge>
  </filter>
  <filter id="paperNoise" x="0" y="0" width="100%" height="100%">
    <feTurbulence type="fractalNoise" baseFrequency=".85" numOctaves="3" seed="8" result="noise"/>
    <feColorMatrix in="noise" type="saturate" values="0"/>
    <feComponentTransfer><feFuncA type="table" tableValues="0 .08"/></feComponentTransfer>
  </filter>
</defs>

  <defs>
  <linearGradient id="tealGlow" x1="0" y1="0" x2="1" y2="1">
    <stop stop-color="#79F6E7"/><stop offset=".55" stop-color="#15BDB8"/><stop offset="1" stop-color="#1688D8"/>
  </linearGradient>
  <linearGradient id="goldMetal" x1="0" y1="0" x2="1" y2="1">
    <stop stop-color="#FFF4C8"/><stop offset=".35" stop-color="#D9A62E"/><stop offset=".72" stop-color="#8B5B17"/><stop offset="1" stop-color="#FFE28A"/>
  </linearGradient>
  <filter id="softGlow" x="-40%" y="-40%" width="180%" height="180%">
    <feGaussianBlur stdDeviation="3" result="blur"/><feMerge><feMergeNode in="blur"/><feMergeNode in="SourceGraphic"/></feMerge>
  </filter>
  <filter id="paperNoise" x="0" y="0" width="100%" height="100%">
    <feTurbulence type="fractalNoise" baseFrequency=".85" numOctaves="3" seed="8" result="noise"/>
    <feColorMatrix in="noise" type="saturate" values="0"/>
    <feComponentTransfer><feFuncA type="table" tableValues="0 .08"/></feComponentTransfer>
  </filter>
</defs>
  <rect x="14" y="14" width="692" height="392" rx="28" fill="#FFFCF1" stroke="#BFDCEB" stroke-width="4"/>
  <path d="M48 114V48h78M594 48h78v66M672 306v66h-78M126 372H48v-66" stroke="#1388E8" stroke-opacity=".36" stroke-width="6" stroke-linecap="round"/>
  <rect x="52" y="56" width="248" height="308" rx="20" fill="#EEF8FF" stroke="#BFDCEB"/>
  <circle cx="534" cy="190" r="82" stroke="#D9A62E" stroke-width="8" opacity=".48"/>
  <path d="M350 106h250M350 154h194M350 276h254M350 320h174" stroke="#0F2742" stroke-opacity=".22" stroke-width="8" stroke-linecap="round"/>

</svg>
