<svg xmlns="http://www.w3.org/2000/svg" width="360" height="500" viewBox="0 0 360 500" fill="none">
<defs>
  <linearGradient id="tealGlow" x1="0" y1="0" x2="1" y2="1">
    <stop stop-color="#79F6E7"/><stop offset=".55" stop-color="#15BDB8"/><stop offset="1" stop-color="#1688D8"/>
  </linearGradient>
  <linearGradient id="goldMetal" x1="0" y1="0" x2="1" y2="1">
    <stop stop-color="#FFF4C8"/><stop offset=".35" stop-color="#D9A62E"/><stop offset=".72" stop-color="#8B5B17"/><stop offset="1" stop-color="#FFE28A"/>
  </linearGradient>
  <filter id="softGlow" x="-40%" y="-40%" width="180%" height="180%">
    <feGaussianBlur stdDeviation="3" result="blur"/><feMerge><feMergeNode in="blur"/><feMergeNode in="SourceGraphic"/></feMerge>
  </filter>
  <filter id="paperNoise" x="0" y="0" width="100%" height="100%">
    <feTurbulence type="fractalNoise" baseFrequency=".85" numOctaves="3" seed="8" result="noise"/>
    <feColorMatrix in="noise" type="saturate" values="0"/>
    <feComponentTransfer><feFuncA type="table" tableValues="0 .08"/></feComponentTransfer>
  </filter>
</defs>

  <defs>
  <linearGradient id="tealGlow" x1="0" y1="0" x2="1" y2="1">
    <stop stop-color="#79F6E7"/><stop offset=".55" stop-color="#15BDB8"/><stop offset="1" stop-color="#1688D8"/>
  </linearGradient>
  <linearGradient id="goldMetal" x1="0" y1="0" x2="1" y2="1">
    <stop stop-color="#FFF4C8"/><stop offset=".35" stop-color="#D9A62E"/><stop offset=".72" stop-color="#8B5B17"/><stop offset="1" stop-color="#FFE28A"/>
  </linearGradient>
  <filter id="softGlow" x="-40%" y="-40%" width="180%" height="180%">
    <feGaussianBlur stdDeviation="3" result="blur"/><feMerge><feMergeNode in="blur"/><feMergeNode in="SourceGraphic"/></feMerge>
  </filter>
  <filter id="paperNoise" x="0" y="0" width="100%" height="100%">
    <feTurbulence type="fractalNoise" baseFrequency=".85" numOctaves="3" seed="8" result="noise"/>
    <feColorMatrix in="noise" type="saturate" values="0"/>
    <feComponentTransfer><feFuncA type="table" tableValues="0 .08"/></feComponentTransfer>
  </filter>
</defs>
  <rect x="10" y="10" width="340" height="480" rx="24" fill="#FFF8EA" fill-opacity="1" stroke="#D9A62E" stroke-opacity=".55" stroke-width="4"/>
  <path d="M32 92V40h52M276 40h52v52M328 408v52h-52M84 460H32v-52" stroke="#D9A62E" stroke-width="5" stroke-linecap="round"/>
  <rect x="34" y="116" width="292" height="190" rx="18" fill="rgba(19,136,232,.06)" stroke="#D9A62E" stroke-opacity=".18"/>
  <g stroke="#D9A62E" stroke-opacity=".1"><path d="M44 142h272"/><path d="M44 160h272"/><path d="M44 178h272"/><path d="M44 196h272"/><path d="M44 214h272"/><path d="M44 232h272"/><path d="M44 250h272"/><path d="M44 268h272"/><path d="M44 286h272"/></g>
  <circle cx="180" cy="210" r="54" stroke="#D9A62E" stroke-width="5" stroke-dasharray="10 9" opacity=".62"/>

</svg>
